<svg width="696" height="873" viewBox="0 0 696 873" fill="none" xmlns="http://www.w3.org/2000/svg">
<path d="M71.15 692.5V708.55H130.55V692.5H71.15ZM88.25 724.9V759.7H108.05V724.9H88.25ZM122.75 692.5V701.2C122.75 710.8 122.75 722.8 119.75 739.9L139.1 742C142.4 724.75 142.4 710.95 142.4 701.2V692.5H122.75ZM155.9 682.45V786.4H176V682.45H155.9ZM168.05 724.75V741.1H192.5V724.75H168.05ZM83.3 803.05V818.95H180.35V803.05H83.3ZM83.3 777.1V808H103.25V777.1H83.3ZM64.85 767.8C88.7 767.8 120.95 767.2 149.6 761.8L148.4 747.7C120.5 751.6 87.05 752.05 63.05 752.05L64.85 767.8ZM298.388 682.6V760.9H318.488V682.6H298.388ZM226.088 767.35V819.85H318.488V767.35H226.088ZM298.838 782.95V804.1H245.588V782.95H298.838ZM235.538 687.55V700.9C235.538 718 225.638 735.7 202.388 742.9L211.988 758.65C239.138 750.1 252.038 726.7 252.038 700.9V687.55H235.538ZM239.588 687.55V700.9C239.588 726.4 252.038 748.15 278.588 756.1L288.188 740.65C265.688 733.9 255.938 717.7 255.938 700.9V687.55H239.588ZM371.427 689.95V702.25C371.427 721.15 361.977 739.75 338.727 747.55L349.377 763.3C375.777 754.15 387.777 729.85 387.777 702.25V689.95H371.427ZM375.477 689.95V704.2C375.477 729.25 387.327 750.85 412.377 759.25L422.727 743.8C400.977 737.05 391.677 720.85 391.677 704.2V689.95H375.477ZM430.377 682.45V764.5H450.327V682.45H430.377ZM444.777 714.55V731.05H468.777V714.55H444.777ZM405.027 767.65C376.077 767.65 357.927 777.7 357.927 794.5C357.927 811.45 376.077 821.35 405.027 821.35C433.827 821.35 451.977 811.45 451.977 794.5C451.977 777.7 433.827 767.65 405.027 767.65ZM405.027 783.1C422.727 783.1 432.177 786.85 432.177 794.5C432.177 802.3 422.727 805.9 405.027 805.9C387.327 805.9 377.727 802.3 377.727 794.5C377.727 786.85 387.327 783.1 405.027 783.1ZM531.765 758.8V779.95H551.715V758.8H531.765ZM478.965 747.4V763.15H604.515V747.4H478.965ZM489.915 686.2V702.1H593.415V686.2H489.915ZM490.965 722.95V738.85H592.365V722.95H490.965ZM507.615 692.05V733.3H527.565V692.05H507.615ZM555.765 692.05V733.3H575.715V692.05H555.765ZM493.515 774.7V819.85H589.515V774.7H493.515ZM570.015 790.15V804.1H513.165V790.15H570.015Z" fill="black"/>
<path d="M47.7881 103.024H158.673L224.563 391.511H513.981L581.008 169.12L172.43 163.328" stroke="black" stroke-width="37.5"/>
<path d="M535.082 458.745H224.149C219.667 458.844 215.21 458.034 211.05 456.364C206.889 454.694 203.109 452.199 199.939 449.028C196.768 445.858 194.273 442.078 192.603 437.917C190.933 433.756 190.123 429.3 190.222 424.818C190.222 391.511 224.563 391.511 224.563 391.511" stroke="black" stroke-width="37.5"/>
<path d="M258.077 570.354C278.242 570.354 294.59 554.007 294.59 533.841C294.59 513.675 278.242 497.328 258.077 497.328C237.911 497.328 221.563 513.675 221.563 533.841C221.563 554.007 237.911 570.354 258.077 570.354Z" stroke="black" stroke-width="37.5"/>
<path d="M476.226 570.354C496.392 570.354 512.74 554.007 512.74 533.841C512.74 513.675 496.392 497.328 476.226 497.328C456.06 497.328 439.713 513.675 439.713 533.841C439.713 554.007 456.06 570.354 476.226 570.354Z" stroke="black" stroke-width="37.5"/>
</svg>
