<svg width="723" height="723" viewBox="0 0 723 723" fill="none" xmlns="http://www.w3.org/2000/svg">
<path d="M60.25 90.375H135.562L195.812 512.125H512.125M512.125 512.125C478.849 512.125 451.875 539.099 451.875 572.375C451.875 605.651 478.849 632.625 512.125 632.625C545.401 632.625 572.375 605.651 572.375 572.375C572.375 539.099 545.401 512.125 512.125 512.125ZM182.902 421.75H542.25L632.625 150.625H144.17M331.375 572.375C331.375 605.651 304.401 632.625 271.125 632.625C237.85 632.625 210.875 605.651 210.875 572.375C210.875 539.099 237.85 512.125 271.125 512.125C304.401 512.125 331.375 539.099 331.375 572.375Z" stroke="black" stroke-width="50" stroke-linecap="round" stroke-linejoin="round"/>
</svg>
